<svg width="61" height="56" viewBox="0 0 61 56" fill="none" xmlns="http://www.w3.org/2000/svg">
<path d="M28 0C12.561 0 0 12.561 0 28C0 43.439 12.561 56 28 56H31C46.439 56 59 43.439 59 28C59 22.601 57.4608 17.5564 54.8027 13.2754L60.0391 8.03906L57.2109 5.21094L52.4238 9.99805C47.2834 3.89018 39.589 0 31 0H28ZM31 4C38.4864 4 45.1811 7.44695 49.5859 12.8359L31.375 31.0469L19.6641 19.3359L16.8359 22.1641L31.375 36.7031L51.8828 16.1953C53.8628 19.6839 55 23.7101 55 28C55 41.234 44.233 52 31 52C17.767 52 7 41.234 7 28C7 14.766 17.767 4 31 4Z" fill="#00D4FF"/>
</svg>
